<svg xmlns="http://www.w3.org/2000/svg" width="15" height="18" viewBox="0 0 15 18">
  <g id="repeat" transform="translate(-3 0)">
    <path id="Path_4427" data-name="Path 4427" d="M24.75,7.5a.681.681,0,0,1-.525-.225.725.725,0,0,1,0-1.05L26.7,3.75,24.225,1.275a.725.725,0,0,1,0-1.05.725.725,0,0,1,1.05,0l3,3a.725.725,0,0,1,0,1.05l-3,3A.681.681,0,0,1,24.75,7.5Z" transform="translate(-10.5 0)"/>
    <path id="Path_4428" data-name="Path 4428" d="M3.75,12A.709.709,0,0,1,3,11.25V9.75A3.714,3.714,0,0,1,6.75,6h10.5a.709.709,0,0,1,.75.75.709.709,0,0,1-.75.75H6.75A2.21,2.21,0,0,0,4.5,9.75v1.5A.709.709,0,0,1,3.75,12Zm3,9a.681.681,0,0,1-.525-.225l-3-3a.725.725,0,0,1,0-1.05l3-3a.742.742,0,0,1,1.05,1.05L4.8,17.25l2.475,2.475a.725.725,0,0,1,0,1.05A.681.681,0,0,1,6.75,21Z" transform="translate(0 -3)"/>
    <path id="Path_4429" data-name="Path 4429" d="M14.25,24H3.75a.75.75,0,0,1,0-1.5h10.5a2.21,2.21,0,0,0,2.25-2.25v-1.5a.75.75,0,1,1,1.5,0v1.5A3.714,3.714,0,0,1,14.25,24Z" transform="translate(0 -9)"/>
  </g>
</svg>
