<svg xmlns="http://www.w3.org/2000/svg" width="15.795" height="19.25" viewBox="0 0 15.795 19.25">
  <g id="Report_Issues" data-name="Report Issues" transform="translate(-4.375 -1.375)">
    <path id="Path_4386" data-name="Path 4386" d="M17.455,20.5H7.091A2.545,2.545,0,0,1,4.5,17.909V4.091A2.545,2.545,0,0,1,7.091,1.5H14a.784.784,0,0,1,.6.259l5.182,5.182a.784.784,0,0,1,.259.6V17.909A2.545,2.545,0,0,1,17.455,20.5ZM7.091,3.227a.816.816,0,0,0-.864.864V17.909a.816.816,0,0,0,.864.864H17.455a.816.816,0,0,0,.864-.864V7.891L13.655,3.227Z" stroke="#fff" stroke-width="0.25"/>
    <path id="Path_4387" data-name="Path 4387" d="M21.727,8.409H16.545a.816.816,0,0,1-.864-.864V2.364a.864.864,0,1,1,1.727,0V6.682h4.318a.816.816,0,0,1,.864.864A.816.816,0,0,1,21.727,8.409Z" transform="translate(-2.545)" stroke="#fff" stroke-width="0.25"/>
  </g>
</svg>
