<svg xmlns="http://www.w3.org/2000/svg" width="15" height="13.75" viewBox="0 0 15 13.75">
  <g id="map" transform="translate(0 -1.5)">
    <path id="Path_4425" data-name="Path 4425" d="M10,15.272c-.125,0-.188,0-.25-.063L5,12.834.938,15.147a.568.568,0,0,1-.625,0,.5.5,0,0,1-.312-.5v-10a.656.656,0,0,1,.313-.562l4.375-2.5a.867.867,0,0,1,.563,0L10,3.959l4.063-2.312a.568.568,0,0,1,.625,0,.5.5,0,0,1,.313.5v10a.656.656,0,0,1-.312.563l-4.375,2.5A.563.563,0,0,1,10,15.272Zm-5-3.75c.125,0,.188,0,.25.063l4.688,2.375,3.75-2.125V3.209L10.25,5.147a.469.469,0,0,1-.562,0L5,2.834,1.25,5.022v8.563l3.438-1.937A.344.344,0,0,1,5,11.522Z" transform="translate(0 -0.022)"/>
    <path id="Path_4426" data-name="Path 4426" d="M11.125,12.75a.59.59,0,0,1-.625-.625v-10a.625.625,0,0,1,1.25,0v10A.59.59,0,0,1,11.125,12.75Zm5,2.5a.59.59,0,0,1-.625-.625v-10a.625.625,0,0,1,1.25,0v10A.59.59,0,0,1,16.125,15.25Z" transform="translate(-6.125)"/>
  </g>
</svg>
