<svg xmlns="http://www.w3.org/2000/svg" width="15" height="15" viewBox="0 0 15 15">
  <g id="trello" transform="translate(18 18) rotate(180)">
    <path id="Path_4430" data-name="Path 4430" d="M15.75,18H5.25A2.21,2.21,0,0,1,3,15.75V5.25A2.21,2.21,0,0,1,5.25,3h10.5A2.21,2.21,0,0,1,18,5.25v10.5A2.21,2.21,0,0,1,15.75,18ZM5.25,4.5a.709.709,0,0,0-.75.75v10.5a.709.709,0,0,0,.75.75h10.5a.709.709,0,0,0,.75-.75V5.25a.709.709,0,0,0-.75-.75Z"/>
    <path id="Path_4431" data-name="Path 4431" d="M12,17.25H9.75A.709.709,0,0,1,9,16.5V9.75A.709.709,0,0,1,9.75,9H12a.709.709,0,0,1,.75.75V16.5A.709.709,0,0,1,12,17.25Zm-1.5-1.5h.75V10.5H10.5Zm6.75-1.5H15a.709.709,0,0,1-.75-.75V9.75A.709.709,0,0,1,15,9h2.25a.709.709,0,0,1,.75.75V13.5A.709.709,0,0,1,17.25,14.25Zm-1.5-1.5h.75V10.5h-.75Z" transform="translate(-3 -3)"/>
  </g>
</svg>
