<svg xmlns="http://www.w3.org/2000/svg" width="15" height="11.273" viewBox="0 0 15 11.273">
  <g id="eye" transform="translate(-0.037 -4.5)">
    <path id="Path_4432" data-name="Path 4432" d="M7.538,15.773c-4.7,0-7.328-5.136-7.453-5.386a.869.869,0,0,1,0-.564C.21,9.636,2.84,4.5,7.538,4.5s7.328,5.136,7.453,5.386a.869.869,0,0,1,0,.564C14.865,10.638,12.235,15.773,7.538,15.773Zm-6.2-5.637c.564,1,2.818,4.384,6.2,4.384s5.574-3.382,6.2-4.384c-.564-1-2.818-4.384-6.2-4.384S1.963,9.135,1.337,10.137Z" transform="translate(0 0)"/>
    <path id="Path_4433" data-name="Path 4433" d="M14.505,17.01a2.505,2.505,0,1,1,2.505-2.505A2.513,2.513,0,0,1,14.505,17.01Zm0-3.758a1.253,1.253,0,1,0,1.253,1.253A1.256,1.256,0,0,0,14.505,13.253Z" transform="translate(-6.968 -4.368)"/>
  </g>
</svg>
