<svg id="Automation" xmlns="http://www.w3.org/2000/svg" width="19" height="19" viewBox="0 0 19 19">
  <g id="a-b">
    <path id="Path_4368" data-name="Path 4368" d="M0,0H19V19H0Z" fill="none"/>
    <path id="Path_4369" data-name="Path 4369" d="M4.583,12.5v1.583a1.64,1.64,0,0,0,1.583,1.583H8.542V17.25H6.167A3.167,3.167,0,0,1,3,14.083V12.5ZM14.875,8.542l3.483,8.708H16.652L15.7,14.875H12.464l-.949,2.375H9.809l3.483-8.708Zm-.792,2.284L13.1,13.292h1.973ZM3,3H7.75A2.375,2.375,0,0,1,9.519,6.958,2.375,2.375,0,0,1,7.75,10.917H3ZM7.75,7.75H4.583V9.333H7.75a.792.792,0,1,0,0-1.583ZM14.083,3A3.167,3.167,0,0,1,17.25,6.167V7.75H15.667V6.167a1.583,1.583,0,0,0-1.583-1.583H11.708V3ZM7.75,4.583H4.583V6.167H7.75a.792.792,0,0,0,0-1.583Z" transform="translate(-1.681 -0.625)" fill="#fff"/>
  </g>
</svg>
