<svg xmlns="http://www.w3.org/2000/svg" width="15" height="14.286" viewBox="0 0 15 14.286">
  <g id="check-square" transform="translate(-3 -3)">
    <path id="Path_4349" data-name="Path 4349" d="M14.857,13.071a.648.648,0,0,1-.5-.214l-2.143-2.143a.707.707,0,0,1,1-1l1.643,1.643L21.5,4.714a.707.707,0,0,1,1,1l-7.143,7.143A.648.648,0,0,1,14.857,13.071Z" transform="translate(-4.714 -0.786)" fill="#28293d"/>
    <path id="Path_4350" data-name="Path 4350" d="M15.143,17.286h-10A2.1,2.1,0,0,1,3,15.143v-10A2.1,2.1,0,0,1,5.143,3H13a.675.675,0,0,1,.714.714A.675.675,0,0,1,13,4.429H5.143a.675.675,0,0,0-.714.714v10a.675.675,0,0,0,.714.714h10a.675.675,0,0,0,.714-.714v-5a.714.714,0,0,1,1.429,0v5A2.1,2.1,0,0,1,15.143,17.286Z" fill="#28293d"/>
  </g>
</svg>
