<svg id="Dashboard" xmlns="http://www.w3.org/2000/svg" width="19" height="19" viewBox="0 0 19 19">
  <g id="Rectangle_1690" data-name="Rectangle 1690" transform="translate(0 13.854)" fill="none" stroke="#fff" stroke-width="1.5">
    <rect width="5.146" height="5.146" rx="2" stroke="none"/>
    <rect x="0.75" y="0.75" width="3.646" height="3.646" rx="1.25" fill="none"/>
  </g>
  <g id="Path_4330" data-name="Path 4330" transform="translate(-3.646 -3.646)" fill="none">
    <path d="M21.948,17.771a1.574,1.574,0,0,0-.885-.271H19.083A1.583,1.583,0,0,0,17.5,19.083v1.979a1.583,1.583,0,0,0,1.583,1.583h1.979a1.583,1.583,0,0,0,1.583-1.583V19.083a1.583,1.583,0,0,0-.7-1.312Z" stroke="none"/>
    <path d="M 19.08333778381348 18.99999618530273 C 19.03738784790039 18.99999618530273 18.99999809265137 19.03738594055176 18.99999809265137 19.08333587646484 L 18.99999809265137 21.06249618530273 C 18.99999809265137 21.10844612121582 19.03738784790039 21.14583587646484 19.08333778381348 21.14583587646484 L 21.06249809265137 21.14583587646484 C 21.10844802856445 21.14583587646484 21.14583778381348 21.10844612121582 21.14583778381348 21.06249618530273 L 21.14583778381348 19.08333587646484 C 21.14583778381348 19.05575561523438 21.13210868835449 19.03002548217773 21.10643768310547 19.01271629333496 C 21.09415817260742 19.00439643859863 21.07980728149414 18.99999618530273 21.06249809265137 18.99999618530273 L 19.08333778381348 18.99999618530273 M 21.06499290466309 17.4999942779541 C 21.37960815429688 17.50000381469727 21.68705940246582 17.59430122375488 21.94757843017578 17.7707462310791 L 21.94779777526855 17.77089691162109 C 22.38422775268555 18.06522560119629 22.64583778381348 18.55720710754395 22.64583778381348 19.08333587646484 L 22.64583778381348 21.06249618530273 C 22.64583778381348 21.93694686889648 21.93694877624512 22.64583587646484 21.06249809265137 22.64583587646484 L 19.08333778381348 22.64583587646484 C 18.20888710021973 22.64583587646484 17.49999809265137 21.93694686889648 17.49999809265137 21.06249618530273 L 17.49999809265137 19.08333587646484 C 17.49999809265137 18.20888710021973 18.20887756347656 17.49999618530273 19.08333778381348 17.49999618530273 L 21.06249809265137 17.49999618530273 C 21.06334495544434 17.4999942779541 21.06414604187012 17.4999942779541 21.06499290466309 17.4999942779541 Z" stroke="none" fill="#fff"/>
  </g>
  <g id="Rectangle_1691" data-name="Rectangle 1691" transform="translate(0 6.927)" fill="none" stroke="#fff" stroke-width="1.5">
    <rect width="5.146" height="5.146" rx="2" stroke="none"/>
    <rect x="0.75" y="0.75" width="3.646" height="3.646" rx="1.25" fill="none"/>
  </g>
  <g id="Path_4331" data-name="Path 4331" transform="translate(-3.646 -1.823)" fill="none">
    <path d="M21.948,9.021a1.574,1.574,0,0,0-.885-.271H19.083A1.583,1.583,0,0,0,17.5,10.333v1.979A1.583,1.583,0,0,0,19.083,13.9h1.979a1.583,1.583,0,0,0,1.583-1.583V10.333a1.583,1.583,0,0,0-.7-1.312Z" stroke="none"/>
    <path d="M 19.08333778381348 10.25000381469727 C 19.03738784790039 10.25000381469727 18.99999809265137 10.28738403320313 18.99999809265137 10.33333396911621 L 18.99999809265137 12.31250381469727 C 18.99999809265137 12.35845470428467 19.03738784790039 12.39583396911621 19.08333778381348 12.39583396911621 L 21.06249809265137 12.39583396911621 C 21.10844802856445 12.39583396911621 21.14583778381348 12.35845470428467 21.14583778381348 12.31250381469727 L 21.14583778381348 10.33333396911621 C 21.14583778381348 10.30634021759033 21.1326732635498 10.28110790252686 21.11054992675781 10.26550579071045 L 21.10639762878418 10.26269435882568 C 21.09413719177246 10.25439453125 21.0798282623291 10.25000381469727 21.06249809265137 10.25000381469727 L 19.08333778381348 10.25000381469727 M 21.06504249572754 8.750001907348633 C 21.37963676452637 8.75001335144043 21.68707466125488 8.84430980682373 21.94757843017578 9.020753860473633 L 21.94780731201172 9.020894050598145 C 22.38422775268555 9.315224647521973 22.64583778381348 9.807204246520996 22.64583778381348 10.33333396911621 L 22.64583778381348 12.31250381469727 C 22.64583778381348 13.18695449829102 21.93694877624512 13.89583396911621 21.06249809265137 13.89583396911621 L 19.08333778381348 13.89583396911621 C 18.20888710021973 13.89583396911621 17.49999809265137 13.18695449829102 17.49999809265137 12.31250381469727 L 17.49999809265137 10.33333396911621 C 17.49999809265137 9.458884239196777 18.20887756347656 8.750003814697266 19.08333778381348 8.750003814697266 L 21.06249809265137 8.750003814697266 C 21.06336402893066 8.750002861022949 21.06417655944824 8.750001907348633 21.06504249572754 8.750001907348633 Z" stroke="none" fill="#fff"/>
  </g>
  <g id="Rectangle_1692" data-name="Rectangle 1692" transform="translate(0 0)" fill="none" stroke="#fff" stroke-width="1.5">
    <rect width="5.146" height="5.146" rx="2" stroke="none"/>
    <rect x="0.75" y="0.75" width="3.646" height="3.646" rx="1.25" fill="none"/>
  </g>
  <g id="Path_4332" data-name="Path 4332" transform="translate(-1.823 -3.646)" fill="none">
    <path d="M13.2,17.771a1.574,1.574,0,0,0-.885-.271H10.333A1.583,1.583,0,0,0,8.75,19.083v1.979a1.583,1.583,0,0,0,1.583,1.583h1.979A1.583,1.583,0,0,0,13.9,21.063V19.083a1.583,1.583,0,0,0-.7-1.312Z" stroke="none"/>
    <path d="M 10.33333587646484 18.99999618530273 C 10.28738594055176 18.99999618530273 10.24999618530273 19.03738594055176 10.24999618530273 19.08333587646484 L 10.24999618530273 21.06249618530273 C 10.24999618530273 21.10844612121582 10.28738594055176 21.14583587646484 10.33333587646484 21.14583587646484 L 12.31249618530273 21.14583587646484 C 12.35844612121582 21.14583587646484 12.39583587646484 21.10844612121582 12.39583587646484 21.06249618530273 L 12.39583587646484 19.08333587646484 C 12.39583587646484 19.05575561523438 12.38209629058838 19.03001594543457 12.35644626617432 19.01271629333496 C 12.34416580200195 19.00439643859863 12.32981586456299 18.99999618530273 12.31249618530273 18.99999618530273 L 10.33333587646484 18.99999618530273 M 12.31499195098877 17.4999942779541 C 12.62960624694824 17.50000381469727 12.93706798553467 17.59430122375488 13.19758605957031 17.7707462310791 L 13.1978063583374 17.77089691162109 C 13.63422584533691 18.06522560119629 13.89583587646484 18.55720710754395 13.89583587646484 19.08333587646484 L 13.89583587646484 21.06249618530273 C 13.89583587646484 21.93694686889648 13.18694591522217 22.64583587646484 12.31249618530273 22.64583587646484 L 10.33333587646484 22.64583587646484 C 9.45888614654541 22.64583587646484 8.749996185302734 21.93694686889648 8.749996185302734 21.06249618530273 L 8.749996185302734 19.08333587646484 C 8.749996185302734 18.20888710021973 9.45888614654541 17.49999618530273 10.33333587646484 17.49999618530273 L 12.31249618530273 17.49999618530273 C 12.3133430480957 17.4999942779541 12.31414413452148 17.4999942779541 12.31499195098877 17.4999942779541 Z" stroke="none" fill="#fff"/>
  </g>
  <g id="Path_4333" data-name="Path 4333" transform="translate(-1.823 -1.823)" fill="none">
    <path d="M13.2,9.021a1.574,1.574,0,0,0-.885-.271H10.333A1.583,1.583,0,0,0,8.75,10.333v1.979A1.583,1.583,0,0,0,10.333,13.9h1.979A1.583,1.583,0,0,0,13.9,12.313V10.333a1.583,1.583,0,0,0-.7-1.312Z" stroke="none"/>
    <path d="M 10.33333587646484 10.25000381469727 C 10.28738594055176 10.25000381469727 10.24999618530273 10.28738403320313 10.24999618530273 10.33333396911621 L 10.24999618530273 12.31250381469727 C 10.24999618530273 12.35845470428467 10.28738594055176 12.39583396911621 10.33333587646484 12.39583396911621 L 12.31249618530273 12.39583396911621 C 12.35844612121582 12.39583396911621 12.39583587646484 12.35845470428467 12.39583587646484 12.31250381469727 L 12.39583587646484 10.33333396911621 C 12.39583587646484 10.30623722076416 12.38257217407227 10.28091621398926 12.36029434204102 10.2653284072876 L 12.35640621185303 10.26269435882568 C 12.34414577484131 10.25439453125 12.32982635498047 10.25000381469727 12.31249618530273 10.25000381469727 L 10.33333587646484 10.25000381469727 M 12.31504154205322 8.750001907348633 C 12.62963485717773 8.75001335144043 12.93708324432373 8.84430980682373 13.19758605957031 9.020753860473633 L 13.1978063583374 9.020894050598145 C 13.63422584533691 9.315224647521973 13.89583587646484 9.807204246520996 13.89583587646484 10.33333396911621 L 13.89583587646484 12.31250381469727 C 13.89583587646484 13.18695449829102 13.18694591522217 13.89583396911621 12.31249618530273 13.89583396911621 L 10.33333587646484 13.89583396911621 C 9.45888614654541 13.89583396911621 8.749996185302734 13.18695449829102 8.749996185302734 12.31250381469727 L 8.749996185302734 10.33333396911621 C 8.749996185302734 9.458884239196777 9.45888614654541 8.750003814697266 10.33333587646484 8.750003814697266 L 12.31249618530273 8.750003814697266 C 12.31336212158203 8.750002861022949 12.31417465209961 8.750001907348633 12.31504154205322 8.750001907348633 Z" stroke="none" fill="#fff"/>
  </g>
  <g id="Path_4334" data-name="Path 4334" transform="translate(-1.823 0)" fill="none">
    <path d="M13.2.271A1.574,1.574,0,0,0,12.312,0H10.333A1.583,1.583,0,0,0,8.75,1.583V3.562a1.583,1.583,0,0,0,1.583,1.583h1.979A1.583,1.583,0,0,0,13.9,3.562V1.583A1.583,1.583,0,0,0,13.2.271Z" stroke="none"/>
    <path d="M 10.33333587646484 1.500004291534424 C 10.28738594055176 1.500004291534424 10.24999618530273 1.537384271621704 10.24999618530273 1.58333420753479 L 10.24999618530273 3.562494277954102 C 10.24999618530273 3.608444213867188 10.28738594055176 3.64583420753479 10.33333587646484 3.64583420753479 L 12.31249618530273 3.64583420753479 C 12.35844612121582 3.64583420753479 12.39583587646484 3.608444213867188 12.39583587646484 3.562494277954102 L 12.39583587646484 1.58333420753479 C 12.39583587646484 1.556237459182739 12.38257217407227 1.530916213989258 12.36029434204102 1.515328407287598 L 12.35640621185303 1.512694358825684 C 12.34414577484131 1.504394292831421 12.32982635498047 1.500004291534424 12.31249618530273 1.500004291534424 L 10.33333587646484 1.500004291534424 M 12.31504154205322 2.384185791015625e-06 C 12.62963485717773 1.287460327148438e-05 12.93708324432373 0.09431028366088867 13.19758605957031 0.270754337310791 L 13.1978063583374 0.2708940505981445 C 13.63422584533691 0.5652241706848145 13.89583587646484 1.057204246520996 13.89583587646484 1.58333420753479 L 13.89583587646484 3.562494277954102 C 13.89583587646484 4.436954498291016 13.18694591522217 5.145834445953369 12.31249618530273 5.145834445953369 L 10.33333587646484 5.145834445953369 C 9.45888614654541 5.145834445953369 8.749996185302734 4.436954498291016 8.749996185302734 3.562494277954102 L 8.749996185302734 1.58333420753479 C 8.749996185302734 0.7088842391967773 9.45888614654541 4.291534423828125e-06 10.33333587646484 4.291534423828125e-06 L 12.31249618530273 4.291534423828125e-06 C 12.31336212158203 2.86102294921875e-06 12.31417465209961 2.384185791015625e-06 12.31504154205322 2.384185791015625e-06 Z" stroke="none" fill="#fff"/>
  </g>
  <g id="Path_4335" data-name="Path 4335" transform="translate(-3.646 0)" fill="none">
    <path d="M22.375.7A1.583,1.583,0,0,0,21.063,0H19.083A1.583,1.583,0,0,0,17.5,1.583V3.562a1.583,1.583,0,0,0,1.583,1.583h1.979a1.583,1.583,0,0,0,1.583-1.583V1.583A1.574,1.574,0,0,0,22.375.7Z" stroke="none"/>
    <path d="M 19.08333587646484 1.499996423721313 C 19.03738594055176 1.499996423721313 18.99999618530273 1.537386417388916 18.99999618530273 1.583336591720581 L 18.99999618530273 3.562496662139893 C 18.99999618530273 3.608446598052979 19.03738594055176 3.645836353302002 19.08333587646484 3.645836353302002 L 21.06249618530273 3.645836353302002 C 21.10844612121582 3.645836353302002 21.14583587646484 3.608446598052979 21.14583587646484 3.562496662139893 L 21.14583587646484 1.58095645904541 C 21.14586639404297 1.566086530685425 21.14146614074707 1.551716566085815 21.13134574890137 1.53675651550293 C 21.11582565307617 1.513746500015259 21.08999633789063 1.499996423721313 21.06249618530273 1.499996423721313 L 19.08333587646484 1.499996423721313 M 19.08333587646484 -3.337860107421875e-06 L 21.06249618530273 -3.337860107421875e-06 C 21.58889579772949 8.630752563476563e-05 22.08082580566406 0.2617764472961426 22.37508583068848 0.6982464790344238 C 22.55200576782227 0.9594664573669434 22.64633560180664 1.267836570739746 22.64583587646484 1.583336591720581 L 22.64583587646484 3.562496662139893 C 22.64583587646484 4.436946392059326 21.93694496154785 5.145836353302002 21.06249618530273 5.145836353302002 L 19.08333587646484 5.145836353302002 C 18.20888519287109 5.145836353302002 17.49999618530273 4.436946392059326 17.49999618530273 3.562496662139893 L 17.49999618530273 1.583336591720581 C 17.49999618530273 0.7088866233825684 18.20888519287109 -3.337860107421875e-06 19.08333587646484 -3.337860107421875e-06 Z" stroke="none" fill="#fff"/>
  </g>
</svg>
