<svg id="Defect-Tracker" xmlns="http://www.w3.org/2000/svg" width="19" height="19" viewBox="0 0 19 19">
  <g id="Group_2427" data-name="Group 2427" transform="translate(0 -446)">
    <path id="gear-wide" d="M10.6.863a1.141,1.141,0,0,0-2.213,0L8.307,1.2a1.14,1.14,0,0,1-1.926.516l-.243-.251A1.139,1.139,0,0,0,4.223,2.573l.095.337A1.14,1.14,0,0,1,2.91,4.319l-.337-.1A1.14,1.14,0,0,0,1.467,6.138l.251.243A1.14,1.14,0,0,1,1.2,8.308l-.339.084a1.141,1.141,0,0,0,0,2.213l.339.084a1.14,1.14,0,0,1,.516,1.926l-.251.243a1.139,1.139,0,0,0,1.106,1.915l.337-.095a1.14,1.14,0,0,1,1.41,1.41l-.1.336a1.14,1.14,0,0,0,1.915,1.106l.243-.251a1.14,1.14,0,0,1,1.926.516l.084.339a1.141,1.141,0,0,0,2.213,0l.084-.339a1.14,1.14,0,0,1,1.926-.516l.243.251a1.139,1.139,0,0,0,1.915-1.106l-.095-.337a1.14,1.14,0,0,1,1.41-1.41l.336.1a1.14,1.14,0,0,0,1.106-1.915l-.251-.243A1.14,1.14,0,0,1,17.8,10.69l.339-.084a1.141,1.141,0,0,0,0-2.213L17.8,8.308a1.14,1.14,0,0,1-.516-1.926l.251-.243a1.139,1.139,0,0,0-1.106-1.915l-.337.095a1.14,1.14,0,0,1-1.41-1.408l.1-.337a1.14,1.14,0,0,0-1.915-1.106l-.243.251A1.14,1.14,0,0,1,10.69,1.2ZM9.5,15.431A5.934,5.934,0,1,0,3.564,9.5,5.934,5.934,0,0,0,9.5,15.431Z" transform="translate(0.001 446.001)" fill="#fff" fill-rule="evenodd"/>
    <g id="exclamation-triangle" transform="translate(6.595 450.088)">
      <path id="Path_4411" data-name="Path 4411" d="M2.881,2.616a.053.053,0,0,0-.02.021L.373,6.871a.064.064,0,0,0,0,.066.055.055,0,0,0,.02.022.041.041,0,0,0,.024.006H5.393a.044.044,0,0,0,.024-.006.059.059,0,0,0,.02-.022.064.064,0,0,0,0-.066L2.948,2.637a.053.053,0,0,0-.02-.021.049.049,0,0,0-.046,0Zm.379-.163a.41.41,0,0,0-.711,0L.06,6.687a.424.424,0,0,0,.356.641H5.393a.423.423,0,0,0,.356-.641Z" transform="translate(0)" fill="#fff" stroke="#fff" stroke-width="0.1" fill-rule="evenodd"/>
      <path id="Path_4412" data-name="Path 4412" d="M15.755,13.784a.363.363,0,1,1,.363.363A.363.363,0,0,1,15.755,13.784ZM15.79,11.6a.328.328,0,1,1,.653,0l-.127,1.273a.2.2,0,0,1-.4,0Z" transform="translate(-13.213 -7.544)" fill="#fff" stroke="#fff" stroke-width="0.1"/>
    </g>
  </g>
</svg>
