<svg id="Icon_-_Calendar" data-name="Icon - Calendar" xmlns="http://www.w3.org/2000/svg" width="12" height="12" viewBox="0 0 12 12">
  <rect id="Standard_Calendar_background" data-name="Standard / Calendar background" width="12" height="12" fill="none"/>
  <g id="Group_75" data-name="Group 75">
    <path id="Mask" d="M11,11.5H1a1,1,0,0,1-1-1v-8a1,1,0,0,1,1-1H2V.75a.75.75,0,1,1,1.5,0V1.5H8.5V.75a.75.75,0,0,1,1.5,0V1.5h1a1,1,0,0,1,1,1v8A1,1,0,0,1,11,11.5Zm-9.25-7a.25.25,0,0,0-.249.25v5A.25.25,0,0,0,1.75,10h8.5a.25.25,0,0,0,.25-.25v-5a.25.25,0,0,0-.25-.25Z" transform="translate(0 0.5)" fill="#0761a6"/>
  </g>
</svg>
