<svg xmlns="http://www.w3.org/2000/svg" width="15" height="16.667" viewBox="0 0 15 16.667">
  <path id="owner" d="M18.667,19.667a.787.787,0,0,1-.833-.833V17.167a2.455,2.455,0,0,0-2.5-2.5H8.667a2.455,2.455,0,0,0-2.5,2.5v1.667a.787.787,0,0,1-.833.833.787.787,0,0,1-.833-.833V17.167A4.126,4.126,0,0,1,8.667,13h6.667A4.126,4.126,0,0,1,19.5,17.167v1.667A.787.787,0,0,1,18.667,19.667ZM12,11.333A4.126,4.126,0,0,1,7.833,7.167a4.167,4.167,0,1,1,8.333,0A4.126,4.126,0,0,1,12,11.333Zm0-6.667a2.455,2.455,0,0,0-2.5,2.5,2.5,2.5,0,1,0,5,0A2.455,2.455,0,0,0,12,4.667Z" transform="translate(-4.5 -3)" fill="#28293d"/>
</svg>
