<svg id="Reports" xmlns="http://www.w3.org/2000/svg" width="16" height="19.2" viewBox="0 0 16 19.2">
  <g id="Path_4323" data-name="Path 4323" transform="translate(-4.032 -0.46)" fill="none">
    <path d="M14.8,6.492h5.232a5.563,5.563,0,0,0-1.273-1.971L15.972,1.732A5.582,5.582,0,0,0,14,.46V5.692A.8.8,0,0,0,14.8,6.492Z" stroke="none"/>
    <path d="M 17.10941886901855 4.992000102996826 L 15.50000095367432 3.381657600402832 L 15.50000095367432 4.992000102996826 L 17.10941886901855 4.992000102996826 M 20.03200149536133 6.492000102996826 L 14.80000114440918 6.492000102996826 C 14.35817050933838 6.492000102996826 14.00000095367432 6.133830070495605 14.00000095367432 5.691999912261963 L 14.00000095367432 0.460000067949295 C 14.74004077911377 0.7394700646400452 15.41223049163818 1.173050045967102 15.97200107574463 1.732000112533569 L 18.75920104980469 4.520800113677979 C 19.31878089904785 5.07990026473999 19.75270080566406 5.751920223236084 20.03200149536133 6.492000102996826 Z" stroke="none" fill="#fff"/>
  </g>
  <g id="Path_4324" data-name="Path 4324" transform="translate(-2 0)" fill="none">
    <path d="M17.981,8H12.4A2.4,2.4,0,0,1,10,5.6V.019C9.871.01,9.742,0,9.612,0H6A4,4,0,0,0,2,4V15.2a4,4,0,0,0,4,4h8a4,4,0,0,0,4-4V8.388C18,8.258,17.99,8.129,17.981,8Z" stroke="none"/>
    <path d="M 6.001799583435059 1.5 C 4.623959541320801 1.501649856567383 3.501649856567383 2.623958587646484 3.5 3.999999046325684 L 3.5 15.19819927215576 C 3.501649856567383 16.5760383605957 4.623959541320801 17.69834899902344 6 17.69999885559082 L 13.99819946289063 17.69999885559082 C 15.37604999542236 17.69834899902344 16.49835014343262 16.5760498046875 16.5 15.19999885559082 L 16.5 9.499999046325684 L 12.39999961853027 9.499999046325684 C 10.24952983856201 9.499999046325684 8.5 7.750469207763672 8.5 5.59999942779541 L 8.5 1.5 L 6.001799583435059 1.5 M 6 0 L 9.612000465393066 0 C 9.742400169372559 0 9.871199607849121 0.01039886474609375 10 0.01919937133789063 L 10 5.59999942779541 C 10 6.925479888916016 11.07452011108398 7.999999046325684 12.39999961853027 7.999999046325684 L 17.98080062866211 7.999999046325684 C 17.98959922790527 8.128799438476563 18 8.257599830627441 18 8.387999534606934 L 18 15.19999885559082 C 17.99736022949219 17.40803909301758 16.20804023742676 19.19734954833984 14 19.19999885559082 L 6 19.19999885559082 C 3.791959762573242 19.19734954833984 2.002649307250977 17.40803909301758 2 15.19999885559082 L 2 3.999999046325684 C 2.002649307250977 1.791959762573242 3.791959762573242 0.002649307250976563 6 0 Z" stroke="none" fill="#fff"/>
  </g>
</svg>
