<svg xmlns="http://www.w3.org/2000/svg" width="3.867" height="7.438" viewBox="0 0 3.867 7.438">
  <g id="Sort" transform="translate(-445.069 -385.28)">
    <path id="Rectangle" d="M1.048,0a.5.5,0,0,1,.768,0L3.249,1.719a.5.5,0,0,1-.384.82H0a.5.5,0,0,1-.384-.82Z" transform="translate(445.57 385.46)" fill="#2b1818"/>
    <path id="Path" d="M1.048,2.539a.5.5,0,0,0,.768,0L3.249.82A.5.5,0,0,0,2.865,0H0A.5.5,0,0,0-.384.82Z" transform="translate(445.57 389.999)" fill="#2b1818"/>
    <path id="Rectangle-2" data-name="Rectangle" d="M1.048,0a.5.5,0,0,1,.768,0L3.249,1.719a.5.5,0,0,1-.384.82H0a.5.5,0,0,1-.384-.82Z" transform="translate(445.57 385.46)" fill="#2b1818"/>
    <path id="Path-2" data-name="Path" d="M1.048,2.539a.5.5,0,0,0,.768,0L3.249.82A.5.5,0,0,0,2.865,0H0A.5.5,0,0,0-.384.82Z" transform="translate(445.57 389.999)" fill="#2b1818"/>
  </g>
</svg>
