<svg xmlns="http://www.w3.org/2000/svg" width="15" height="15" viewBox="0 0 15 15">
  <g id="Time" transform="translate(-1.5 -1.5)">
    <path id="Path_4340" data-name="Path 4340" d="M9,16.5A7.5,7.5,0,1,1,16.5,9,7.478,7.478,0,0,1,9,16.5ZM9,2.864A6.136,6.136,0,1,0,15.136,9,6.111,6.111,0,0,0,9,2.864Z" fill="#28293d"/>
    <path id="Path_4341" data-name="Path 4341" d="M19.909,14.318c-.136,0-.2,0-.273-.068l-2.727-1.364a.655.655,0,0,1-.409-.614V8.182a.682.682,0,1,1,1.364,0v3.682l2.318,1.159a.6.6,0,0,1,.273.886A.518.518,0,0,1,19.909,14.318Z" transform="translate(-8.182 -3.273)" fill="#28293d"/>
  </g>
</svg>
