<svg id="Component_93_1" data-name="Component 93 – 1" xmlns="http://www.w3.org/2000/svg" width="20" height="20" viewBox="0 0 20 20">
  <rect id="Rectangle_1731" data-name="Rectangle 1731" width="20" height="20" fill="#ececec"/>
  <g id="copy" transform="translate(1.5 1.5)">
    <path id="Path_4383" data-name="Path 4383" d="M19.636,21.545H13.909A1.875,1.875,0,0,1,12,19.636V13.909A1.875,1.875,0,0,1,13.909,12h5.727a1.875,1.875,0,0,1,1.909,1.909v5.727A1.875,1.875,0,0,1,19.636,21.545Zm-5.727-8.273a.6.6,0,0,0-.636.636v5.727a.6.6,0,0,0,.636.636h5.727a.6.6,0,0,0,.636-.636V13.909a.6.6,0,0,0-.636-.636Z" transform="translate(-6.045 -6.045)"/>
    <path id="Path_4384" data-name="Path 4384" d="M4.045,11.045H3.409A1.875,1.875,0,0,1,1.5,9.136V3.409A1.875,1.875,0,0,1,3.409,1.5H9.136a1.875,1.875,0,0,1,1.909,1.909v.636a.636.636,0,1,1-1.273,0V3.409a.6.6,0,0,0-.636-.636H3.409a.6.6,0,0,0-.636.636V9.136a.6.6,0,0,0,.636.636h.636a.636.636,0,1,1,0,1.273Z"/>
  </g>
</svg>
