<svg xmlns="http://www.w3.org/2000/svg" width="15.25" height="15.341" viewBox="0 0 15.25 15.341">
  <g id="exclamation-diamond" transform="translate(0.125 0.217)">
    <path id="Path_4409" data-name="Path 4409" d="M6.516.408a1.392,1.392,0,0,1,1.969,0l6.108,6.109a1.389,1.389,0,0,1,0,1.967L8.484,14.592a1.389,1.389,0,0,1-1.967,0L.408,8.485a1.389,1.389,0,0,1,0-1.967Zm1.312.656a.464.464,0,0,0-.656,0L1.063,7.172a.464.464,0,0,0,0,.656l6.109,6.109a.464.464,0,0,0,.656,0l6.109-6.109a.464.464,0,0,0,0-.656L7.828,1.063Z" fill="#e82727" stroke="#e82727" stroke-width="0.25" fill-rule="evenodd"/>
    <path id="Path_4410" data-name="Path 4410" d="M15.755,15.557a.937.937,0,1,1,.937.937A.937.937,0,0,1,15.755,15.557Zm.092-5.629a.848.848,0,1,1,1.687,0l-.328,3.288a.517.517,0,0,1-1.031,0Z" transform="translate(-9.191 -5.245)" fill="#e82727" stroke="#e82727" stroke-width="0.25"/>
  </g>
</svg>
