<svg xmlns="http://www.w3.org/2000/svg" width="14.335" height="14.428" viewBox="0 0 14.335 14.428">
  <g id="clock-history" transform="translate(0.215 0.125)">
    <path id="Path_4406" data-name="Path 4406" d="M18.451.892Q18.226.875,18,.875V0c.171,0,.343.006.514.019l-.064.872Zm1.753.394a6.127,6.127,0,0,0-.862-.262L19.534.17a6.848,6.848,0,0,1,.985.3l-.315.816Zm1.2.621q-.188-.125-.384-.236L21.45.908a7.021,7.021,0,0,1,.857.572l-.538.69q-.178-.139-.366-.264Zm1.6,1.566a6.116,6.116,0,0,0-.571-.7l.633-.6a7.279,7.279,0,0,1,.654.8l-.715.5Zm.651,1.183q-.086-.208-.187-.409l.781-.394a6.978,6.978,0,0,1,.394.952l-.831.274q-.071-.214-.157-.423Zm.464,2.193a6.117,6.117,0,0,0-.087-.9L24.9,5.8A7.062,7.062,0,0,1,25,6.826l-.875.022Zm-.115,1.346c.029-.149.052-.3.071-.446l.869.108a6.961,6.961,0,0,1-.2,1.011L23.9,8.633q.06-.216.1-.438Zm-.833,2.081a6.179,6.179,0,0,0,.425-.794l.8.354a7.066,7.066,0,0,1-.486.908Zm-.843,1.054c.107-.107.209-.217.306-.331l.663.571q-.168.2-.351.378l-.619-.619Z" transform="translate(-11.005)" fill="#0761a6" stroke="#0761a6" stroke-width="0.25" fill-rule="evenodd"/>
    <path id="Path_4407" data-name="Path 4407" d="M6.995.875A6.124,6.124,0,1,0,11.326,11.33l.619.619A7,7,0,1,1,6.995,0Z" fill="#0761a6" stroke="#0761a6" stroke-width="0.25" fill-rule="evenodd"/>
    <path id="Path_4408" data-name="Path 4408" d="M16.126,6.75a.376.376,0,0,1,.376.376v3.92l2.443,1.4a.376.376,0,0,1-.373.653l-2.633-1.5a.376.376,0,0,1-.19-.327V7.126A.376.376,0,0,1,16.126,6.75Z" transform="translate(-9.355 -3.605)" fill="#0761a6" stroke="#0761a6" stroke-width="0.25" fill-rule="evenodd"/>
  </g>
</svg>
