<svg xmlns="http://www.w3.org/2000/svg" width="14" height="14" viewBox="0 0 14 14">
  <g id="check-circle" transform="translate(-1.5 -1.5)">
    <path id="Path_4381" data-name="Path 4381" d="M8.5,15.5h0a7,7,0,0,1,0-14h0a6.289,6.289,0,0,1,2.864.636.627.627,0,0,1-.509,1.145A6.023,6.023,0,0,0,8.5,2.773h0a5.727,5.727,0,1,0,0,11.455h0A5.7,5.7,0,0,0,14.227,8.5V7.927a.636.636,0,0,1,1.273,0V8.5A6.98,6.98,0,0,1,8.5,15.5Z" fill="#1bbe2f"/>
    <path id="Path_4382" data-name="Path 4382" d="M14.545,12.136a.578.578,0,0,1-.445-.191l-1.909-1.909a.63.63,0,1,1,.891-.891l1.464,1.464,5.918-5.918a.63.63,0,1,1,.891.891l-6.364,6.364A.578.578,0,0,1,14.545,12.136Z" transform="translate(-6.045 -1.727)" fill="#1bbe2f"/>
  </g>
</svg>
