<svg xmlns="http://www.w3.org/2000/svg" width="86.995" height="79.785" viewBox="0 0 86.995 79.785">
  <g id="Group_1925" data-name="Group 1925" transform="translate(-46.91 -13.559)">
    <g id="Group_631" data-name="Group 631" transform="translate(46.945 13.559)">
      <g id="Group_627" data-name="Group 627" transform="translate(23.55 23.653)">
        <path id="Path_3924" data-name="Path 3924" d="M182.61,134.176l-.045,15.43H167.18V134.221h0Z" transform="translate(-167.18 -134.176)" fill="#2b8b37"/>
      </g>
      <path id="Path_3925" data-name="Path 3925" d="M143.389,220.542H128l7.683-7.683h15.385Z" transform="translate(-112.136 -173.777)" fill="#fff"/>
      <path id="Path_3926" data-name="Path 3926" d="M128,157.472V142.086h0l7.683-7.683h0v15.385Z" transform="translate(-112.136 -110.706)" fill="#009ddd"/>
      <g id="Group_628" data-name="Group 628" transform="translate(38.937 7.683)">
        <path id="Path_3927" data-name="Path 3927" d="M261.072,68.165l-15.43-.045V52.735h15.385Z" transform="translate(-245.642 -52.735)" fill="#009ddd"/>
      </g>
      <path id="Path_3928" data-name="Path 3928" d="M206.466,28.945V13.559l7.683,7.682V36.627Z" transform="translate(-175.212 -13.559)" fill="#fff"/>
      <path id="Path_3929" data-name="Path 3929" d="M206.466,13.559h15.385l7.683,7.682H214.149Z" transform="translate(-175.212 -13.559)" fill="#dc0079"/>
      <g id="Group_629" data-name="Group 629" transform="translate(40.059 23.599)">
        <path id="Path_3930" data-name="Path 3930" d="M251.364,139.674l14.308-5.777,5.8,14.25-14.25,5.8h0Z" transform="translate(-251.364 -133.898)" fill="#e82727"/>
      </g>
      <path id="Path_3931" data-name="Path 3931" d="M334.339,138.116l5.8,14.25-10.012-4.219-5.8-14.25Z" transform="translate(-269.96 -110.299)" fill="#fc9d2d"/>
      <path id="Path_3932" data-name="Path 3932" d="M305.507,210.781l-14.25,5.8h0l-10.012-4.219h0l14.25-5.8Z" transform="translate(-235.326 -168.714)" fill="#fff"/>
      <g id="Group_630" data-name="Group 630" transform="translate(0 54.922)">
        <path id="Path_3933" data-name="Path 3933" d="M50.648,325.072a5,5,0,0,1-1.447-.2,3.824,3.824,0,0,1-1.127-.534,2.528,2.528,0,0,1-.728-.774,1.758,1.758,0,0,1-.257-.9,1.407,1.407,0,0,1,.2-.745.7.7,0,0,1,.648-.332,1.087,1.087,0,0,1,.77.248.76.76,0,0,1,.265.568,3.369,3.369,0,0,1-.088.681q-.088.412-.139.589a1.433,1.433,0,0,0,.215.2,1.723,1.723,0,0,0,.384.227,3.246,3.246,0,0,0,.565.2,3.551,3.551,0,0,0,.835.076,2.853,2.853,0,0,0,.973-.168,2.117,2.117,0,0,0,.822-.538,2.789,2.789,0,0,0,.577-.9,3.726,3.726,0,0,0,.207-1.359,4.219,4.219,0,0,0-.1-.9,1.855,1.855,0,0,0-.358-.774,1.7,1.7,0,0,0-.713-.509,3.1,3.1,0,0,0-1.143-.181h-1.1v-.968h.734a2.031,2.031,0,0,0,1.679-.639,3.031,3.031,0,0,0,.515-1.926,2.25,2.25,0,0,0-.5-1.586,1.83,1.83,0,0,0-1.408-.534,2.092,2.092,0,0,0-.721.105,3.212,3.212,0,0,0-.46.206,1.427,1.427,0,0,0-.346.261q-.135.143-.2.21.059.269.143.66a3.556,3.556,0,0,1,.084.744.751.751,0,0,1-.265.559,1.1,1.1,0,0,1-.778.248.718.718,0,0,1-.652-.32,1.334,1.334,0,0,1-.206-.74,1.875,1.875,0,0,1,.244-.892,2.888,2.888,0,0,1,.723-.85,3.827,3.827,0,0,1,1.17-.639,4.762,4.762,0,0,1,1.59-.244,4.156,4.156,0,0,1,1.712.307,3.108,3.108,0,0,1,1.064.745,2.429,2.429,0,0,1,.521.9,2.855,2.855,0,0,1,.143.808,3.154,3.154,0,0,1-.118.845,2.363,2.363,0,0,1-.387.787,3.107,3.107,0,0,1-.778.719,4.168,4.168,0,0,1-1.216.526v.135a4.789,4.789,0,0,1,1.005.21,3.111,3.111,0,0,1,.963.5,2.688,2.688,0,0,1,.732.887,2.938,2.938,0,0,1,.286,1.375,3.164,3.164,0,0,1-1.3,2.621A5.127,5.127,0,0,1,50.648,325.072Z" transform="translate(-47.089 -308.964)" fill="#fff"/>
        <path id="Path_3934" data-name="Path 3934" d="M99.675,306.664h-4v-.555l.4-.034a1.529,1.529,0,0,0,.358-.067.6.6,0,0,0,.349-.265.948.948,0,0,0,.114-.492v-5.7a1.009,1.009,0,0,0-.122-.492,1.085,1.085,0,0,0-.341-.374,1.557,1.557,0,0,0-.463-.172,3.44,3.44,0,0,0-.555-.088v-.555l2.928-.185.118.118v7.348a.955.955,0,0,0,.113.488.669.669,0,0,0,.355.286,2.851,2.851,0,0,0,.359.122,2.207,2.207,0,0,0,.393.063ZM98.624,294.7a1.224,1.224,0,0,1-.316.837,1,1,0,0,1-.778.358.983.983,0,0,1-.744-.341,1.112,1.112,0,0,1-.316-.778,1.158,1.158,0,0,1,.316-.808.977.977,0,0,1,.744-.345,1.036,1.036,0,0,1,.787.324A1.062,1.062,0,0,1,98.624,294.7Z" transform="translate(-85.934 -293.627)" fill="#fff"/>
        <path id="Path_3935" data-name="Path 3935" d="M155.969,311.172h-5.376v-.6l.656-.05a2.437,2.437,0,0,0,.606-.1.833.833,0,0,0,.4-.3.943.943,0,0,0,.126-.526V300.95a1.162,1.162,0,0,0-.092-.492.756.756,0,0,0-.438-.332,4.418,4.418,0,0,0-.635-.189,4.233,4.233,0,0,0-.627-.105v-.6h5.376v.6a5.425,5.425,0,0,0-.623.063,4.271,4.271,0,0,0-.631.139.663.663,0,0,0-.429.328,1.148,1.148,0,0,0-.109.5v8.64a.977.977,0,0,0,.122.492.831.831,0,0,0,.417.341,3.958,3.958,0,0,0,.576.147,4.153,4.153,0,0,0,.677.089Z" transform="translate(-130.296 -298.134)" fill="#fff"/>
        <path id="Path_3936" data-name="Path 3936" d="M193.309,325.173h-4.055v-.555l.425-.034a1.6,1.6,0,0,0,.383-.067.606.606,0,0,0,.349-.265.945.945,0,0,0,.114-.492v-4.265a2.012,2.012,0,0,0-.417-1.363,1.3,1.3,0,0,0-1.016-.479,2.324,2.324,0,0,0-.818.139,2.908,2.908,0,0,0-.658.341,1.87,1.87,0,0,0-.443.416,3.739,3.739,0,0,0-.24.358v4.77a.862.862,0,0,0,.118.471.757.757,0,0,0,.353.286,1.647,1.647,0,0,0,.383.126,3.364,3.364,0,0,0,.425.059v.555h-4.063v-.555l.4-.034a1.524,1.524,0,0,0,.358-.067.6.6,0,0,0,.349-.265.948.948,0,0,0,.114-.492v-5.117a1.143,1.143,0,0,0-.122-.525,1.046,1.046,0,0,0-.341-.391,1.159,1.159,0,0,0-.379-.147,3.4,3.4,0,0,0-.471-.063v-.555l2.76-.185.118.118v1.169h.042q.2-.2.5-.484a4.371,4.371,0,0,1,.572-.458,3,3,0,0,1,.74-.337,3.23,3.23,0,0,1,.967-.135,2.1,2.1,0,0,1,1.771.745,3.152,3.152,0,0,1,.576,1.981v4.316a.973.973,0,0,0,.1.475.668.668,0,0,0,.345.282,2.217,2.217,0,0,0,.349.118,2.67,2.67,0,0,0,.408.05Z" transform="translate(-157.196 -312.136)" fill="#fff"/>
        <path id="Path_3937" data-name="Path 3937" d="M240.956,294.709a1.014,1.014,0,0,1-.2.64.729.729,0,0,1-.614.261.929.929,0,0,1-.458-.109,1.425,1.425,0,0,1-.366-.294,2.7,2.7,0,0,1-.311-.421q-.143-.235-.244-.379-.564.025-.871.785a6.956,6.956,0,0,0-.307,2.422v.848h2.137v.808h-2.137v5.956a.907.907,0,0,0,.114.479.688.688,0,0,0,.358.278,2.577,2.577,0,0,0,.538.122q.337.046.581.063v.555H234.8v-.555l.4-.034a1.535,1.535,0,0,0,.358-.067.605.605,0,0,0,.349-.265.947.947,0,0,0,.114-.492v-6.04h-1.641v-.808h1.641v-.529a4.611,4.611,0,0,1,.98-3.061,3.068,3.068,0,0,1,2.452-1.172,1.815,1.815,0,0,1,1.127.295A.88.88,0,0,1,240.956,294.709Z" transform="translate(-197.65 -293.686)" fill="#fff"/>
        <path id="Path_3938" data-name="Path 3938" d="M273.032,320.908a5.482,5.482,0,0,1-.278,1.72,4.1,4.1,0,0,1-.792,1.434,3.688,3.688,0,0,1-1.347,1,4.326,4.326,0,0,1-1.718.328,3.876,3.876,0,0,1-1.508-.3,3.8,3.8,0,0,1-1.272-.871,4.16,4.16,0,0,1-.872-1.375,4.874,4.874,0,0,1-.324-1.821,4.525,4.525,0,0,1,1.133-3.18,4.147,4.147,0,0,1,5.844-.063A4.311,4.311,0,0,1,273.032,320.908Zm-1.741.017a7.531,7.531,0,0,0-.127-1.333,4.214,4.214,0,0,0-.379-1.19,2.332,2.332,0,0,0-.708-.837,1.784,1.784,0,0,0-1.071-.315,1.892,1.892,0,0,0-1.108.32,2.355,2.355,0,0,0-.746.875,3.864,3.864,0,0,0-.379,1.169,7.7,7.7,0,0,0-.11,1.27,7.99,7.99,0,0,0,.131,1.493,4.3,4.3,0,0,0,.417,1.224,2.383,2.383,0,0,0,.721.846,1.814,1.814,0,0,0,1.075.307,1.876,1.876,0,0,0,1.669-1.018A5.43,5.43,0,0,0,271.29,320.925Z" transform="translate(-222.205 -312.102)" fill="#fff"/>
        <path id="Path_3939" data-name="Path 3939" d="M315.458,315.293q-.547.227-1.035.383a3.975,3.975,0,0,1-1.195.156,1.79,1.79,0,0,1-1.468-.526,2.306,2.306,0,0,1-.425-1.485V308.2h-1.5v-.808h1.531v-2.583H312.9v2.583h2.381v.808h-2.364v4.636a8.259,8.259,0,0,0,.038.871,1.615,1.615,0,0,0,.181.61.867.867,0,0,0,.4.37,1.729,1.729,0,0,0,.724.126q.21,0,.618-.038a2.723,2.723,0,0,0,.576-.1Z" transform="translate(-258.313 -302.618)" fill="#fff"/>
        <path id="Path_3940" data-name="Path 3940" d="M349.325,323.188a4.25,4.25,0,0,1-1.4,1.582,3.517,3.517,0,0,1-2.011.589,4.085,4.085,0,0,1-1.754-.353,3.44,3.44,0,0,1-1.241-.959,4.073,4.073,0,0,1-.728-1.413,5.969,5.969,0,0,1-.24-1.708,5.034,5.034,0,0,1,.257-1.586,4.475,4.475,0,0,1,.753-1.4,3.642,3.642,0,0,1,1.19-.963,3.431,3.431,0,0,1,1.594-.366,3.837,3.837,0,0,1,1.556.286,2.772,2.772,0,0,1,1.052.782,3.123,3.123,0,0,1,.576,1.11,4.863,4.863,0,0,1,.19,1.388v.555h-5.494a6.522,6.522,0,0,0,.156,1.484,3.553,3.553,0,0,0,.492,1.172,2.342,2.342,0,0,0,.858.772,2.649,2.649,0,0,0,1.262.282,2.323,2.323,0,0,0,1.291-.351,3.469,3.469,0,0,0,1.047-1.264Zm-1.859-3.163a6.845,6.845,0,0,0-.08-1.006,3.087,3.087,0,0,0-.256-.9,1.711,1.711,0,0,0-.53-.629,1.444,1.444,0,0,0-.867-.243,1.8,1.8,0,0,0-1.468.734,3.419,3.419,0,0,0-.635,2.042Z" transform="translate(-284.131 -312.102)" fill="#fff"/>
        <path id="Path_3941" data-name="Path 3941" d="M389.007,325.358a3.5,3.5,0,0,1-2.818-1.194,5.375,5.375,0,0,1-.745-4.842,4.509,4.509,0,0,1,.795-1.384,3.711,3.711,0,0,1,1.245-.963,3.666,3.666,0,0,1,1.632-.366,3.182,3.182,0,0,1,1.985.585,1.9,1.9,0,0,1,.766,1.594,1.377,1.377,0,0,1-.2.744.722.722,0,0,1-.665.324,1.1,1.1,0,0,1-.77-.251.751.751,0,0,1-.274-.562,3.14,3.14,0,0,1,.1-.776,4.315,4.315,0,0,0,.118-.583.743.743,0,0,0-.449-.348,2.255,2.255,0,0,0-.642-.088,1.776,1.776,0,0,0-.768.173,1.977,1.977,0,0,0-.709.635,3.394,3.394,0,0,0-.5,1.136,6.619,6.619,0,0,0-.193,1.708,4.35,4.35,0,0,0,.693,2.553,2.126,2.126,0,0,0,1.818.989,2.27,2.27,0,0,0,1.365-.4,3.875,3.875,0,0,0,1.021-1.192l.538.353a4.347,4.347,0,0,1-1.464,1.573A3.44,3.44,0,0,1,389.007,325.358Z" transform="translate(-318.873 -312.102)" fill="#fff"/>
        <path id="Path_3942" data-name="Path 3942" d="M431.074,306.723h-4.08v-.555l.429-.034a1.62,1.62,0,0,0,.387-.067.606.606,0,0,0,.349-.265.947.947,0,0,0,.114-.492v-4.265a2.014,2.014,0,0,0-.417-1.363,1.3,1.3,0,0,0-1.016-.479,2.332,2.332,0,0,0-.814.139,3.054,3.054,0,0,0-.67.341,1.971,1.971,0,0,0-.439.421q-.152.21-.236.353v4.77a.888.888,0,0,0,.114.471.732.732,0,0,0,.349.286,1.831,1.831,0,0,0,.383.126,3.111,3.111,0,0,0,.433.059v.555H421.9v-.555l.4-.038a1.955,1.955,0,0,0,.351-.063A.619.619,0,0,0,423,305.8a.927.927,0,0,0,.117-.493v-9.664a1.366,1.366,0,0,0-.13-.573,1,1,0,0,0-.341-.429,1.209,1.209,0,0,0-.534-.156q-.383-.046-.618-.063v-.538l3.071-.185.118.126v5.788h.034q.278-.278.506-.492a4.015,4.015,0,0,1,.6-.45,3.167,3.167,0,0,1,.754-.336,3.28,3.28,0,0,1,.973-.135,2.124,2.124,0,0,1,1.71.7,3.039,3.039,0,0,1,.6,2.023v4.316a.934.934,0,0,0,.106.475.693.693,0,0,0,.352.282,2.8,2.8,0,0,0,.351.114,2.508,2.508,0,0,0,.411.055Z" transform="translate(-348.071 -293.686)" fill="#fff"/>
      </g>
    </g>
    <path id="Path_3943" data-name="Path 3943" d="M472.444,298.048a1.966,1.966,0,1,1,1.39-.575A1.9,1.9,0,0,1,472.444,298.048Zm0-3.51a1.549,1.549,0,1,0,1.1.453A1.479,1.479,0,0,0,472.444,294.538Z" transform="translate(-340.506 -225.543)" fill="#fff"/>
    <g id="Group_632" data-name="Group 632" transform="translate(131.292 69.547)">
      <path id="Path_3944" data-name="Path 3944" d="M477.207,299.063h.666c.411,0,.727.145.727.586,0,.425-.317.617-.727.617h-.316v.772h-.35Zm.629.923c.271,0,.418-.112.418-.337s-.147-.305-.418-.305h-.279v.642Zm-.029.187.253-.209.617,1.074h-.394Z" transform="translate(-477.207 -299.063)" fill="#fff"/>
    </g>
    <g id="Group_633" data-name="Group 633" transform="translate(46.91 89.27)">
      <path id="Path_3945" data-name="Path 3945" d="M47.651,403.238h1.6v.612H46.91v-3.986h.741Z" transform="translate(-46.91 -399.82)" fill="#fff"/>
      <path id="Path_3946" data-name="Path 3946" d="M68.5,403.85h-.744v-3.986H68.5Z" transform="translate(-63.666 -399.82)" fill="#fff"/>
      <path id="Path_3947" data-name="Path 3947" d="M84.053,402.379q.04.095.079.191.038-.1.08-.2t.088-.185l1.18-2.208a.292.292,0,0,1,.045-.066.139.139,0,0,1,.052-.036.239.239,0,0,1,.065-.014c.024,0,.053,0,.085,0h.56v3.986h-.653v-2.574c0-.048,0-.1,0-.157s.007-.115.012-.174l-1.2,2.26a.316.316,0,0,1-.108.12.279.279,0,0,1-.154.043h-.1a.279.279,0,0,1-.154-.043.314.314,0,0,1-.107-.12L82.6,400.936c.007.061.012.12.015.178s0,.112,0,.161v2.574h-.653v-3.986h.56c.033,0,.062,0,.085,0a.24.24,0,0,1,.065.014.152.152,0,0,1,.054.036.27.27,0,0,1,.047.066l1.191,2.213C84,402.255,84.026,402.316,84.053,402.379Z" transform="translate(-75.091 -399.82)" fill="#fff"/>
      <path id="Path_3948" data-name="Path 3948" d="M115.161,403.85h-.744v-3.986h.744Z" transform="translate(-101.179 -399.82)" fill="#fff"/>
      <path id="Path_3949" data-name="Path 3949" d="M130.058,399.864v.609h-1.2v3.377h-.741v-3.377h-1.2v-.609Z" transform="translate(-111.224 -399.82)" fill="#fff"/>
      <path id="Path_3950" data-name="Path 3950" d="M151.941,403.238h1.6v.612H151.2v-3.986h.741Z" transform="translate(-130.749 -399.82)" fill="#fff"/>
      <path id="Path_3951" data-name="Path 3951" d="M174.095,399.864v.59h-1.767v1.105h1.392v.571h-1.392v1.127h1.767v.593h-2.514v-3.986Z" transform="translate(-147.133 -399.82)" fill="#fff"/>
      <path id="Path_3952" data-name="Path 3952" d="M194.414,400.408a.205.205,0,0,1-.07.085.176.176,0,0,1-.1.025.242.242,0,0,1-.124-.043q-.069-.043-.163-.1a1.323,1.323,0,0,0-.219-.1.919.919,0,0,0-.3-.043.866.866,0,0,0-.269.037.58.58,0,0,0-.193.1.413.413,0,0,0-.117.159.518.518,0,0,0-.039.2.352.352,0,0,0,.078.234.662.662,0,0,0,.208.16,1.907,1.907,0,0,0,.295.118q.165.052.337.112a3.268,3.268,0,0,1,.338.138,1.164,1.164,0,0,1,.295.2.9.9,0,0,1,.208.294,1.016,1.016,0,0,1,.079.422,1.372,1.372,0,0,1-.092.505,1.17,1.17,0,0,1-.27.411,1.276,1.276,0,0,1-.434.276,1.6,1.6,0,0,1-.587.1,1.89,1.89,0,0,1-.375-.037,1.985,1.985,0,0,1-.354-.106,1.888,1.888,0,0,1-.317-.166,1.57,1.57,0,0,1-.263-.215l.215-.356a.27.27,0,0,1,.073-.065.181.181,0,0,1,.1-.026.261.261,0,0,1,.149.056q.08.056.189.125a1.456,1.456,0,0,0,.256.125.991.991,0,0,0,.354.056.728.728,0,0,0,.491-.15.539.539,0,0,0,.174-.431.4.4,0,0,0-.079-.256.632.632,0,0,0-.208-.167,1.57,1.57,0,0,0-.295-.115c-.11-.031-.222-.065-.336-.1a2.828,2.828,0,0,1-.336-.133,1.092,1.092,0,0,1-.3-.2.918.918,0,0,1-.208-.31,1.183,1.183,0,0,1-.079-.459,1.1,1.1,0,0,1,.34-.791,1.247,1.247,0,0,1,.409-.256,1.485,1.485,0,0,1,.554-.1,1.858,1.858,0,0,1,.65.11,1.469,1.469,0,0,1,.507.309Z" transform="translate(-163.528 -399.639)" fill="#fff"/>
      <path id="Path_3953" data-name="Path 3953" d="M215.343,400.408a.208.208,0,0,1-.07.085.176.176,0,0,1-.1.025.242.242,0,0,1-.124-.043q-.069-.043-.163-.1a1.329,1.329,0,0,0-.219-.1.918.918,0,0,0-.3-.043.865.865,0,0,0-.269.037.582.582,0,0,0-.193.1.416.416,0,0,0-.117.159.522.522,0,0,0-.038.2.35.35,0,0,0,.078.234.661.661,0,0,0,.208.16,1.912,1.912,0,0,0,.295.118q.165.052.338.112a3.3,3.3,0,0,1,.338.138,1.163,1.163,0,0,1,.295.2.9.9,0,0,1,.208.294,1.019,1.019,0,0,1,.079.422,1.372,1.372,0,0,1-.093.505,1.17,1.17,0,0,1-.27.411,1.274,1.274,0,0,1-.434.276,1.6,1.6,0,0,1-.587.1,1.891,1.891,0,0,1-.375-.037,1.976,1.976,0,0,1-.354-.106,1.873,1.873,0,0,1-.317-.166,1.571,1.571,0,0,1-.263-.215l.215-.356a.269.269,0,0,1,.073-.065.18.18,0,0,1,.1-.026.261.261,0,0,1,.149.056q.08.056.189.125a1.457,1.457,0,0,0,.256.125.99.99,0,0,0,.354.056.728.728,0,0,0,.491-.15.54.54,0,0,0,.174-.431.4.4,0,0,0-.079-.256.63.63,0,0,0-.208-.167,1.567,1.567,0,0,0-.295-.115c-.11-.031-.222-.065-.336-.1a2.819,2.819,0,0,1-.336-.133,1.089,1.089,0,0,1-.3-.2.923.923,0,0,1-.208-.31,1.184,1.184,0,0,1-.078-.459,1.1,1.1,0,0,1,.34-.791,1.248,1.248,0,0,1,.409-.256,1.484,1.484,0,0,1,.554-.1,1.858,1.858,0,0,1,.651.11,1.469,1.469,0,0,1,.507.309Z" transform="translate(-180.352 -399.639)" fill="#fff"/>
      <path id="Path_3954" data-name="Path 3954" d="M251.975,399.864v.59h-1.767v1.105H251.6v.571h-1.392v1.127h1.767v.593h-2.514v-3.986Z" transform="translate(-209.74 -399.82)" fill="#fff"/>
      <path id="Path_3955" data-name="Path 3955" d="M270.843,401.8l-1.27-1.935h.739a.23.23,0,0,1,.111.021.191.191,0,0,1,.062.067l.907,1.464c.009-.024.02-.047.031-.07a.8.8,0,0,1,.038-.07l.83-1.309a.18.18,0,0,1,.157-.1h.711l-1.284,1.9,1.32,2.081h-.741a.179.179,0,0,1-.12-.039.359.359,0,0,1-.076-.088l-.923-1.527a.6.6,0,0,1-.025.062c-.009.019-.018.037-.028.054l-.885,1.411a.446.446,0,0,1-.074.087.157.157,0,0,1-.11.04h-.695Z" transform="translate(-225.863 -399.82)" fill="#fff"/>
      <path id="Path_3956" data-name="Path 3956" d="M297.7,402.729a.139.139,0,0,1,.1.047l.292.317a1.6,1.6,0,0,1-.6.46,2.054,2.054,0,0,1-.85.16,2.007,2.007,0,0,1-.8-.152,1.755,1.755,0,0,1-.6-.422,1.843,1.843,0,0,1-.385-.645,2.421,2.421,0,0,1-.133-.819,2.2,2.2,0,0,1,.149-.823,1.875,1.875,0,0,1,.419-.643,1.9,1.9,0,0,1,.646-.421,2.222,2.222,0,0,1,.831-.15,1.966,1.966,0,0,1,.776.142,1.815,1.815,0,0,1,.569.377l-.248.345a.227.227,0,0,1-.056.058.162.162,0,0,1-.1.025.217.217,0,0,1-.129-.049,1.707,1.707,0,0,0-.168-.108,1.379,1.379,0,0,0-.258-.107,1.321,1.321,0,0,0-.4-.05,1.34,1.34,0,0,0-.517.1,1.151,1.151,0,0,0-.405.28,1.3,1.3,0,0,0-.265.442,1.7,1.7,0,0,0-.1.586,1.745,1.745,0,0,0,.1.6,1.32,1.32,0,0,0,.258.441,1.1,1.1,0,0,0,.383.274,1.181,1.181,0,0,0,.474.1,2.1,2.1,0,0,0,.274-.016,1.19,1.19,0,0,0,.226-.052,1.015,1.015,0,0,0,.2-.092,1.25,1.25,0,0,0,.183-.139.274.274,0,0,1,.058-.04A.148.148,0,0,1,297.7,402.729Z" transform="translate(-246.135 -399.639)" fill="#fff"/>
      <path id="Path_3957" data-name="Path 3957" d="M323.121,399.864v.59h-1.766v1.105h1.392v.571h-1.392v1.127h1.766v.593h-2.514v-3.986Z" transform="translate(-266.935 -399.82)" fill="#fff"/>
      <path id="Path_3958" data-name="Path 3958" d="M343.29,403.238h1.6v.612h-2.337v-3.986h.741Z" transform="translate(-284.574 -399.82)" fill="#fff"/>
      <path id="Path_3959" data-name="Path 3959" d="M363.67,403.238h1.6v.612h-2.338v-3.986h.741Z" transform="translate(-300.957 -399.82)" fill="#fff"/>
      <path id="Path_3960" data-name="Path 3960" d="M385.823,399.864v.59h-1.766v1.105h1.392v.571h-1.392v1.127h1.766v.593h-2.514v-3.986Z" transform="translate(-317.341 -399.82)" fill="#fff"/>
      <path id="Path_3961" data-name="Path 3961" d="M405.721,399.868a.205.205,0,0,1,.059.017.21.21,0,0,1,.051.036.589.589,0,0,1,.055.062l2.092,2.666c-.007-.065-.013-.127-.015-.189s0-.119,0-.172v-2.422h.653v3.986h-.383a.341.341,0,0,1-.146-.028.329.329,0,0,1-.113-.1l-2.083-2.654c.006.059.01.117.012.175s0,.11,0,.158v2.448h-.653v-3.986h.389A.745.745,0,0,1,405.721,399.868Z" transform="translate(-334.978 -399.82)" fill="#fff"/>
      <path id="Path_3962" data-name="Path 3962" d="M434.138,402.729a.139.139,0,0,1,.1.047l.292.317a1.6,1.6,0,0,1-.6.46,2.055,2.055,0,0,1-.85.16,2.006,2.006,0,0,1-.8-.152,1.758,1.758,0,0,1-.605-.422,1.841,1.841,0,0,1-.384-.645,2.415,2.415,0,0,1-.134-.819,2.2,2.2,0,0,1,.149-.823,1.875,1.875,0,0,1,.419-.643,1.9,1.9,0,0,1,.646-.421,2.221,2.221,0,0,1,.831-.15,1.966,1.966,0,0,1,.776.142,1.818,1.818,0,0,1,.569.377l-.249.345a.229.229,0,0,1-.056.058.162.162,0,0,1-.1.025.217.217,0,0,1-.129-.049,1.745,1.745,0,0,0-.168-.108,1.392,1.392,0,0,0-.258-.107,1.323,1.323,0,0,0-.4-.05,1.339,1.339,0,0,0-.517.1,1.154,1.154,0,0,0-.405.28,1.294,1.294,0,0,0-.264.442,1.7,1.7,0,0,0-.1.586,1.745,1.745,0,0,0,.1.6,1.316,1.316,0,0,0,.258.441,1.1,1.1,0,0,0,.383.274,1.181,1.181,0,0,0,.474.1,2.1,2.1,0,0,0,.274-.016,1.186,1.186,0,0,0,.226-.052,1,1,0,0,0,.2-.092,1.262,1.262,0,0,0,.184-.139.261.261,0,0,1,.058-.04A.148.148,0,0,1,434.138,402.729Z" transform="translate(-355.813 -399.639)" fill="#fff"/>
      <path id="Path_3963" data-name="Path 3963" d="M459.558,399.864v.59h-1.767v1.105h1.392v.571h-1.392v1.127h1.767v.593h-2.514v-3.986Z" transform="translate(-376.616 -399.82)" fill="#fff"/>
    </g>
  </g>
</svg>
