<svg xmlns="http://www.w3.org/2000/svg" width="205.234" height="53.549" viewBox="0 0 205.234 53.549">
  <g id="Group_1930" data-name="Group 1930" transform="translate(-392.655 -505.166)">
    <path id="Path_3966" data-name="Path 3966" d="M956.19,580.576" transform="translate(-457.457 -61.215)" fill="#636568"/>
    <path id="Path_3967" data-name="Path 3967" d="M421.724,542.338l-1.709-6.837H404.169l-3.973,6.837h-6.375L413.316,510h6.375l8.685,32.337Zm-14.459-12.15h11.456L415.3,516.422Z" transform="translate(-0.946 -3.925)" fill="#fff"/>
    <path id="Path_3968" data-name="Path 3968" d="M603.159,536.748h13.9L616,542.338h-20.1L602.373,510h6.19Z" transform="translate(-164.992 -3.925)" fill="#fff"/>
    <path id="Path_3969" data-name="Path 3969" d="M745.976,510l-1.016,5.5H734.843l-5.451,26.84H723.2l5.451-26.84H718.582L719.6,510Z" transform="translate(-264.576 -3.925)" fill="#fff"/>
    <path id="Path_3970" data-name="Path 3970" d="M865.725,510l-6.467,32.337h-6.19L859.534,510Z" transform="translate(-373.745 -3.925)" fill="#fff"/>
    <path id="Path_3971" data-name="Path 3971" d="M956.989,526.862a13.13,13.13,0,0,1-6.467,4.851l4.9,10.625H948.4l-3.649-9.563a10.326,10.326,0,0,1-1.155.046h-7.346l-1.894,9.517h-6.19L934.631,510H948.12q5.4,0,8.292,2.333a8.037,8.037,0,0,1,2.887,6.629A13.5,13.5,0,0,1,956.989,526.862Zm-6.005-1.386a6.654,6.654,0,0,0,2.264-5.405,4.062,4.062,0,0,0-1.594-3.488,7.644,7.644,0,0,0-4.6-1.178h-7.345l-2.4,11.964h7.3A9.659,9.659,0,0,0,950.984,525.477Z" transform="translate(-434.706 -3.925)" fill="#fff"/>
    <path id="Path_3972" data-name="Path 3972" d="M1112.146,542.338l-1.709-6.837h-15.845l-3.973,6.837h-6.375L1103.738,510h6.375l8.685,32.337Zm-14.46-12.15h11.457l-3.418-13.766Z" transform="translate(-561.406 -3.925)" fill="#fff"/>
    <path id="Path_3973" data-name="Path 3973" d="M1274.488,522.206,1269.54,510h-6.283l8.454,21.666-1.756,10.671h6.237l1.709-10.671.069-.1Z" transform="translate(-706.723 -3.925)" fill="#fff"/>
    <path id="Path_3974" data-name="Path 3974" d="M1345.117,505.166,1329.2,515.739l3.657,9.1Z" transform="translate(-760.253)" fill="#00a3b0"/>
    <g id="Group_1927" data-name="Group 1927" transform="translate(392.655 546.949)">
      <g id="Group_1926" data-name="Group 1926" transform="translate(0 0)">
        <path id="Path_3975" data-name="Path 3975" d="M400.423,738.608l-.578-2.15h-4.651l-1.282,2.15h-1.257l5.367-8.8h1.245l2.451,8.8Zm-4.588-3.231h3.721l-1.157-4.3Z" transform="translate(-392.655 -729.306)" fill="#cfcfcf"/>
        <path id="Path_3976" data-name="Path 3976" d="M446.764,747.369a2.649,2.649,0,0,1-1.05-1.068,3.234,3.234,0,0,1-.371-1.565,3.838,3.838,0,0,1,.478-1.917,3.389,3.389,0,0,1,1.32-1.32,3.8,3.8,0,0,1,1.886-.471,3.929,3.929,0,0,1,1.471.258,2.652,2.652,0,0,1,1.056.748l-.717.8a2.425,2.425,0,0,0-1.873-.779,2.4,2.4,0,0,0-1.251.333,2.366,2.366,0,0,0-.88.924,2.749,2.749,0,0,0-.32,1.333,2.09,2.09,0,0,0,.553,1.508,1.893,1.893,0,0,0,1.433.578,3.274,3.274,0,0,0,1.182-.207,2.366,2.366,0,0,0,.917-.623l.591.692a3.525,3.525,0,0,1-1.238.854,4.153,4.153,0,0,1-1.615.3A3.134,3.134,0,0,1,446.764,747.369Z" transform="translate(-435.425 -738.412)" fill="#cfcfcf"/>
        <path id="Path_3977" data-name="Path 3977" d="M487.673,739.156a1.809,1.809,0,0,0-.05.415.541.541,0,0,0,.145.427.666.666,0,0,0,.446.126,2.483,2.483,0,0,0,1.131-.34l.214.943a3.238,3.238,0,0,1-1.621.478,1.59,1.59,0,0,1-1.087-.358,1.321,1.321,0,0,1-.409-1.049,2.784,2.784,0,0,1,.05-.541l.729-3.633h-.943l.164-.893h.955l.352-1.785h1.169l-.352,1.785H490.6l-.163.893h-2.062Z" transform="translate(-468.655 -731.852)" fill="#cfcfcf"/>
        <path id="Path_3978" data-name="Path 3978" d="M513.208,729.789l-1.32,6.65h-1.169l1.32-6.65Zm.377-2.483a.618.618,0,0,1,.163.446.848.848,0,0,1-.27.628.866.866,0,0,1-.622.264.547.547,0,0,1-.427-.183.643.643,0,0,1-.163-.446.838.838,0,0,1,.264-.623.856.856,0,0,1,.616-.258A.583.583,0,0,1,513.585,727.306Z" transform="translate(-488.495 -727.136)" fill="#cfcfcf"/>
        <path id="Path_3979" data-name="Path 3979" d="M534.542,741.41a2.734,2.734,0,0,1,1.094,1.075,3.147,3.147,0,0,1,.39,1.572,3.689,3.689,0,0,1-.5,1.911,3.493,3.493,0,0,1-1.358,1.314,3.949,3.949,0,0,1-1.929.471,3.322,3.322,0,0,1-1.628-.384,2.693,2.693,0,0,1-1.081-1.075,3.208,3.208,0,0,1-.383-1.584,3.7,3.7,0,0,1,.49-1.9,3.456,3.456,0,0,1,1.351-1.314,3.954,3.954,0,0,1,1.93-.471A3.338,3.338,0,0,1,534.542,741.41Zm-2.992.968a2.384,2.384,0,0,0-.893.93,2.767,2.767,0,0,0-.327,1.351,2.109,2.109,0,0,0,.553,1.521,1.926,1.926,0,0,0,1.458.578,2.377,2.377,0,0,0,2.15-1.263,2.769,2.769,0,0,0,.327-1.351,2.128,2.128,0,0,0-.547-1.515,1.9,1.9,0,0,0-1.452-.585A2.453,2.453,0,0,0,531.55,742.378Z" transform="translate(-503.456 -738.412)" fill="#cfcfcf"/>
        <path id="Path_3980" data-name="Path 3980" d="M577.4,741.392a1.966,1.966,0,0,1,.635,1.546,3.416,3.416,0,0,1-.075.692l-.792,3.922h-1.182l.754-3.784a2.02,2.02,0,0,0,.05-.465,1.334,1.334,0,0,0-.409-1.031,1.633,1.633,0,0,0-1.15-.377,2.245,2.245,0,0,0-1.527.565,2.686,2.686,0,0,0-.849,1.521l-.716,3.57h-1.182l1.307-6.65h1.194l-.226,1.119a2.823,2.823,0,0,1,2.4-1.194A2.562,2.562,0,0,1,577.4,741.392Z" transform="translate(-537.391 -738.249)" fill="#cfcfcf"/>
        <path id="Path_3981" data-name="Path 3981" d="M617.516,729.789l-1.32,6.65h-1.169l1.32-6.65Zm.377-2.483a.619.619,0,0,1,.164.446.848.848,0,0,1-.27.628.866.866,0,0,1-.622.264.546.546,0,0,1-.427-.183.643.643,0,0,1-.163-.446.839.839,0,0,1,.264-.623.856.856,0,0,1,.616-.258A.583.583,0,0,1,617.893,727.306Z" transform="translate(-573.168 -727.136)" fill="#cfcfcf"/>
        <path id="Path_3982" data-name="Path 3982" d="M639.833,741.392a1.966,1.966,0,0,1,.635,1.546,3.421,3.421,0,0,1-.075.692l-.792,3.922h-1.182l.754-3.784a2.037,2.037,0,0,0,.05-.465,1.335,1.335,0,0,0-.409-1.031,1.634,1.634,0,0,0-1.15-.377,2.245,2.245,0,0,0-1.527.565,2.686,2.686,0,0,0-.849,1.521l-.716,3.57h-1.182l1.307-6.65h1.194l-.226,1.119a2.823,2.823,0,0,1,2.4-1.194A2.562,2.562,0,0,1,639.833,741.392Z" transform="translate(-588.075 -738.249)" fill="#cfcfcf"/>
        <path id="Path_3983" data-name="Path 3983" d="M676.089,749.892a4.552,4.552,0,0,1-1.295-.722l.566-.792a3.2,3.2,0,0,0,2.137.767,2.953,2.953,0,0,0,1.7-.452,2.108,2.108,0,0,0,.861-1.32l.251-1.106a2.94,2.94,0,0,1-1.043.785,3.1,3.1,0,0,1-1.282.27,2.658,2.658,0,0,1-1.377-.352,2.43,2.43,0,0,1-.93-.987,3.1,3.1,0,0,1-.333-1.465,3.647,3.647,0,0,1,.453-1.8,3.405,3.405,0,0,1,1.232-1.289,3.262,3.262,0,0,1,1.722-.471,2.65,2.65,0,0,1,1.47.383,2.032,2.032,0,0,1,.83,1.113l.3-1.445h1.169l-1.307,6.436A3.162,3.162,0,0,1,680,749.439a4.1,4.1,0,0,1-2.464.685A4.36,4.36,0,0,1,676.089,749.892Zm3.482-3.872a2.411,2.411,0,0,0,.855-.9,2.524,2.524,0,0,0,.314-1.245,1.869,1.869,0,0,0-.509-1.364,1.788,1.788,0,0,0-1.339-.522,2.21,2.21,0,0,0-1.182.333,2.5,2.5,0,0,0-1.182,2.143,1.856,1.856,0,0,0,.515,1.364,1.807,1.807,0,0,0,1.345.522A2.209,2.209,0,0,0,679.571,746.02Z" transform="translate(-621.685 -738.359)" fill="#cfcfcf"/>
        <path id="Path_3984" data-name="Path 3984" d="M747.661,729.809l-.214,1.106h-2.841l-1.546,7.693h-1.219l1.546-7.693h-2.816l.2-1.106Z" transform="translate(-675.08 -729.306)" fill="#cfcfcf"/>
        <path id="Path_3985" data-name="Path 3985" d="M776.282,741.41a2.734,2.734,0,0,1,1.094,1.075,3.148,3.148,0,0,1,.39,1.572,3.69,3.69,0,0,1-.5,1.911,3.493,3.493,0,0,1-1.358,1.314,3.949,3.949,0,0,1-1.929.471,3.322,3.322,0,0,1-1.628-.384,2.692,2.692,0,0,1-1.081-1.075,3.209,3.209,0,0,1-.383-1.584,3.705,3.705,0,0,1,.49-1.9,3.457,3.457,0,0,1,1.351-1.314,3.956,3.956,0,0,1,1.93-.471A3.339,3.339,0,0,1,776.282,741.41Zm-2.992.968a2.386,2.386,0,0,0-.893.93,2.767,2.767,0,0,0-.327,1.351,2.109,2.109,0,0,0,.553,1.521,1.926,1.926,0,0,0,1.458.578,2.376,2.376,0,0,0,2.149-1.263,2.768,2.768,0,0,0,.327-1.351,2.128,2.128,0,0,0-.547-1.515,1.9,1.9,0,0,0-1.452-.585A2.453,2.453,0,0,0,773.29,742.378Z" transform="translate(-699.691 -738.412)" fill="#cfcfcf"/>
        <path id="Path_3986" data-name="Path 3986" d="M824.164,741.392a1.967,1.967,0,0,1,.635,1.546,3.43,3.43,0,0,1-.076.692l-.792,3.922H822.75l.754-3.784a2.01,2.01,0,0,0,.05-.465,1.334,1.334,0,0,0-.409-1.031,1.632,1.632,0,0,0-1.15-.377,2.259,2.259,0,0,0-1.477.521,2.593,2.593,0,0,0-.861,1.4l-.754,3.733h-1.182l.754-3.784a2.027,2.027,0,0,0,.05-.465,1.335,1.335,0,0,0-.409-1.031,1.634,1.634,0,0,0-1.15-.377,2.254,2.254,0,0,0-1.534.572,2.63,2.63,0,0,0-.842,1.515l-.716,3.57h-1.182L814,740.9H815.2l-.226,1.119a2.823,2.823,0,0,1,2.4-1.194,2.747,2.747,0,0,1,1.59.421,1.809,1.809,0,0,1,.76,1.188,3,3,0,0,1,2.677-1.609A2.563,2.563,0,0,1,824.164,741.392Z" transform="translate(-733.627 -738.249)" fill="#cfcfcf"/>
        <path id="Path_3987" data-name="Path 3987" d="M889,741.41a2.731,2.731,0,0,1,1.094,1.075,3.146,3.146,0,0,1,.39,1.572,3.691,3.691,0,0,1-.5,1.911,3.494,3.494,0,0,1-1.358,1.314,3.95,3.95,0,0,1-1.929.471,3.321,3.321,0,0,1-1.628-.384,2.694,2.694,0,0,1-1.081-1.075,3.207,3.207,0,0,1-.384-1.584,3.7,3.7,0,0,1,.491-1.9,3.454,3.454,0,0,1,1.351-1.314,3.955,3.955,0,0,1,1.93-.471A3.339,3.339,0,0,1,889,741.41Zm-2.991.968a2.383,2.383,0,0,0-.893.93,2.767,2.767,0,0,0-.327,1.351,2.109,2.109,0,0,0,.553,1.521,1.925,1.925,0,0,0,1.458.578,2.425,2.425,0,0,0,1.263-.333,2.4,2.4,0,0,0,.886-.93,2.767,2.767,0,0,0,.327-1.351,2.126,2.126,0,0,0-.547-1.515,1.894,1.894,0,0,0-1.452-.585A2.452,2.452,0,0,0,886.012,742.378Z" transform="translate(-791.195 -738.412)" fill="#cfcfcf"/>
        <path id="Path_3988" data-name="Path 3988" d="M930.176,741.027l-.15,1.131a2.627,2.627,0,0,0-1.766.553,3.009,3.009,0,0,0-1.049,1.571l-.679,3.432H925.35l1.319-6.65h1.182l-.277,1.37A3,3,0,0,1,930.176,741.027Z" transform="translate(-825.077 -738.412)" fill="#cfcfcf"/>
        <path id="Path_3989" data-name="Path 3989" d="M955.817,741.027l-.151,1.131a2.628,2.628,0,0,0-1.766.553,3.011,3.011,0,0,0-1.049,1.571l-.679,3.432H950.99l1.32-6.65h1.181l-.276,1.37A3,3,0,0,1,955.817,741.027Z" transform="translate(-845.891 -738.412)" fill="#cfcfcf"/>
        <path id="Path_3990" data-name="Path 3990" d="M982.16,741.41a2.731,2.731,0,0,1,1.094,1.075,3.142,3.142,0,0,1,.39,1.572,3.693,3.693,0,0,1-.5,1.911,3.5,3.5,0,0,1-1.358,1.314,3.952,3.952,0,0,1-1.93.471,3.319,3.319,0,0,1-1.628-.384,2.691,2.691,0,0,1-1.081-1.075,3.2,3.2,0,0,1-.383-1.584,3.7,3.7,0,0,1,.49-1.9,3.454,3.454,0,0,1,1.351-1.314,3.951,3.951,0,0,1,1.929-.471A3.337,3.337,0,0,1,982.16,741.41Zm-2.991.968a2.388,2.388,0,0,0-.893.93,2.767,2.767,0,0,0-.327,1.351,2.108,2.108,0,0,0,.553,1.521,1.925,1.925,0,0,0,1.458.578,2.424,2.424,0,0,0,1.263-.333,2.4,2.4,0,0,0,.886-.93,2.764,2.764,0,0,0,.327-1.351,2.128,2.128,0,0,0-.547-1.515,1.894,1.894,0,0,0-1.452-.585A2.454,2.454,0,0,0,979.169,742.378Z" transform="translate(-866.816 -738.412)" fill="#cfcfcf"/>
        <path id="Path_3991" data-name="Path 3991" d="M1029.528,741.228l-3.771,6.65h-1.22l-.767-5.242-2.916,5.242h-1.207l-1.144-6.65h1.194l.754,5.493,2.941-5.493h1.232l.729,5.493,2.942-5.493Z" transform="translate(-900.696 -738.575)" fill="#cfcfcf"/>
      </g>
    </g>
    <g id="Group_1929" data-name="Group 1929" transform="translate(587.586 505.395)">
      <g id="Group_1928" data-name="Group 1928" transform="translate(0)">
        <path id="Path_3992" data-name="Path 3992" d="M1429.942,507.01h-1.725v-.625h4.163v.625h-1.725v4.407h-.712Z" transform="translate(-1428.216 -506.385)" fill="#fff"/>
        <path id="Path_3993" data-name="Path 3993" d="M1459.161,511.418l-.007-3.667-1.819,3.056H1457l-1.819-3.034v3.645h-.69v-5.033h.589l2.1,3.537,2.07-3.537h.59l.007,5.033Z" transform="translate(-1449.549 -506.385)" fill="#fff"/>
      </g>
    </g>
  </g>
</svg>
