<svg xmlns="http://www.w3.org/2000/svg" width="193.895" height="80.667" viewBox="0 0 193.895 80.667">
  <g id="Group_1924" data-name="Group 1924" transform="translate(-165 -181.248)">
    <g id="Group_1" data-name="Group 1" transform="translate(165.596 181.716)">
      <g id="Group_3" data-name="Group 3" transform="translate(137.6 6.187)">
        <path id="Union_1" data-name="Union 1" d="M1.312,7.413A4.074,4.074,0,0,1,0,4.355,4.141,4.141,0,0,1,1.312,1.277,4.369,4.369,0,0,1,4.474,0a4.3,4.3,0,0,1,3.14,1.277A4.174,4.174,0,0,1,8.9,4.355,4.106,4.106,0,0,1,7.614,7.413a4.334,4.334,0,0,1-3.14,1.256A4.407,4.407,0,0,1,1.312,7.413Z" transform="translate(0)" fill="#f58027" stroke="rgba(0,0,0,0)" stroke-miterlimit="10" stroke-width="1"/>
        <path id="Union_3" data-name="Union 3" d="M0,43.428V.076H.03V0h14.1V6.766H6.979V43.428Z" transform="translate(1.161 10.182)" fill="#f58027" stroke="rgba(0,0,0,0)" stroke-miterlimit="10" stroke-width="1"/>
      </g>
      <path id="Union_2" data-name="Union 2" d="M9.689,57.759a19.965,19.965,0,0,1-3.152-2.022L3.966,59.766H0V0H8.141V18.068q.789-.507,1.637-.94a17.882,17.882,0,0,1,8.247-1.976,17.942,17.942,0,0,1,14.095,6.1q5.407,6.1,5.407,16.247,0,10.209-5.407,16.237a18.046,18.046,0,0,1-14.095,6.027A17.838,17.838,0,0,1,9.689,57.759ZM8.738,51.97a16.343,16.343,0,0,0,7.651,1.913A12.643,12.643,0,0,0,26.649,49.3q3.8-4.579,3.8-11.8t-3.8-11.845a12.594,12.594,0,0,0-10.26-4.622,15.826,15.826,0,0,0-7.628,2q-.317.171-.62.349V51.646Q8.433,51.811,8.738,51.97Z" transform="translate(155.272 0.032)" fill="#0761a6" stroke="rgba(0,0,0,0)" stroke-miterlimit="10" stroke-width="1"/>
      <path id="Path_1" data-name="Path 1" d="M332.625-167.96a22.9,22.9,0,0,1,2.766-11.147,20.882,20.882,0,0,1,7.722-8.044,21.17,21.17,0,0,1,11.108-2.974,20.8,20.8,0,0,1,11.308,3.038,19.377,19.377,0,0,1,7.295,8.151,26.254,26.254,0,0,1,2.461,11.532v1.669h-35.4a15.589,15.589,0,0,0,4.624,10.441,15,15,0,0,0,11.041,4.193,19.95,19.95,0,0,0,7.415-1.412,18.487,18.487,0,0,0,6.219-4.022l3.252,4.279q-6.958,6.59-17.417,6.59-9.824,0-16.108-6.2T332.625-167.96Zm7.169-2.7h28.72a14.993,14.993,0,0,0-.907-4.835,15.608,15.608,0,0,0-2.545-4.493,12.205,12.205,0,0,0-4.514-3.4,15.163,15.163,0,0,0-6.417-1.305,14.235,14.235,0,0,0-6.107,1.284,12.486,12.486,0,0,0-4.447,3.359,17.147,17.147,0,0,0-2.677,4.493A15.222,15.222,0,0,0,339.794-170.656Z" transform="translate(-278.153 205.464)" fill="#0761a6"/>
      <path id="Path_2" data-name="Path 2" d="M240.375-207.542v-48.583h7.572v47.238a5.626,5.626,0,0,0,1.287,3.88c.858.965,4.523,1.729,5.005,1.777a14.083,14.083,0,0,0,1.651,0c-.024.04.1,6.748,0,6.9-8.966-.078-10.937-2.335-12.768-4.026A9.3,9.3,0,0,1,240.375-207.542Z" transform="translate(-201.458 256.125)" fill="#0761a6"/>
      <path id="Path_6" data-name="Path 6" d="M30-196.334v-59.791H66.1v6.652H37.322v16.741h21.27v6.85H37.322v29.548Z" transform="translate(-30 256.157)" fill="#0761a6"/>
      <g id="Group_2" data-name="Group 2" transform="translate(88.435 15.36)">
        <path id="Path_10" data-name="Path 10" d="M651.988,255.692h9.823l30.813,44.255H682.7Z" transform="translate(-645.672 -255.692)" fill="#f58027"/>
        <path id="Path_9" data-name="Path 9" d="M620.18,291.253l5.7-4.541,4.653,6.824,26.264-37.844h9l-30.71,44.462h-9.2Z" transform="translate(-620.18 -255.692)" fill="#306d35"/>
      </g>
    </g>
    <text id="Digital_First_Test_Automation_Platform" data-name="Digital First Test Automation Platform" transform="translate(165 258.915)" fill="#707070" font-size="12" font-family="Lato-Italic, Lato" font-style="italic" letter-spacing="0.008em"><tspan x="0" y="0">Digital First Test Automation Platform</tspan></text>
  </g>
</svg>
