<svg xmlns="http://www.w3.org/2000/svg" width="20" height="20" viewBox="0 0 20 20">
  <g id="Add" transform="translate(-742)">
    <path id="Path_4372" data-name="Path 4372" d="M11.5,21.5a10,10,0,1,1,10-10A9.971,9.971,0,0,1,11.5,21.5Zm0-18.182A8.182,8.182,0,1,0,19.682,11.5,8.148,8.148,0,0,0,11.5,3.318Z" transform="translate(740.5 -1.5)"/>
    <path id="Path_4373" data-name="Path 4373" d="M17.409,19.591a.859.859,0,0,1-.909-.909V11.409a.909.909,0,1,1,1.818,0v7.273A.859.859,0,0,1,17.409,19.591Z" transform="translate(734.591 -5.045)"/>
    <path id="Path_4374" data-name="Path 4374" d="M18.682,18.318H11.409a.909.909,0,1,1,0-1.818h7.273a.909.909,0,1,1,0,1.818Z" transform="translate(736.955 -7.409)"/>
  </g>
</svg>
