<svg xmlns="http://www.w3.org/2000/svg" xmlns:xlink="http://www.w3.org/1999/xlink" width="20" height="20" viewBox="0 0 20 20">
  <defs>
    <filter id="check" x="0.5" y="3.437" width="18.626" height="15.459" filterUnits="userSpaceOnUse">
      <feOffset dy="1" input="SourceAlpha"/>
      <feGaussianBlur stdDeviation="1" result="blur"/>
      <feFlood flood-opacity="0.322"/>
      <feComposite operator="in" in2="blur"/>
      <feComposite in="SourceGraphic"/>
    </filter>
  </defs>
  <g id="Checkbox-clicked" transform="translate(-155 -551)">
    <g id="Rectangle_6" data-name="Rectangle 6" transform="translate(155 551)" fill="#0761a6" stroke="#0761a6" stroke-width="2">
      <rect width="20" height="20" rx="2" stroke="none"/>
      <rect x="1" y="1" width="18" height="18" rx="1" fill="none"/>
    </g>
    <g transform="matrix(1, 0, 0, 1, 155, 551)" filter="url(#check)">
      <path id="check-2" data-name="check" d="M8.375,15.9a.586.586,0,0,1-.452-.194l-3.23-3.23a.639.639,0,0,1,.9-.9l2.777,2.777,6.653-6.653a.639.639,0,0,1,.9.9l-7.1,7.1A.586.586,0,0,1,8.375,15.9Z" transform="translate(-0.5 -1.5)" fill="#fff" stroke="#fff" stroke-width="1"/>
    </g>
  </g>
</svg>
