<svg xmlns="http://www.w3.org/2000/svg" width="20" height="22" viewBox="0 0 20 22">
  <g id="Delete" transform="translate(-3 -1.5)">
    <path id="Path_4378" data-name="Path 4378" d="M22,9.5H4a.945.945,0,0,1-1-1,.945.945,0,0,1,1-1H22a.945.945,0,0,1,1,1A.945.945,0,0,1,22,9.5Z" transform="translate(0 -2)"/>
    <path id="Path_4379" data-name="Path 4379" d="M19,23.5H9a2.946,2.946,0,0,1-3-3V6.5a.945.945,0,0,1,1-1,.945.945,0,0,1,1,1v14a.945.945,0,0,0,1,1H19a.945.945,0,0,0,1-1V6.5a1,1,0,0,1,2,0v14A2.946,2.946,0,0,1,19,23.5Zm-1-16a.945.945,0,0,1-1-1v-2a.945.945,0,0,0-1-1H12a.945.945,0,0,0-1,1v2a.945.945,0,0,1-1,1,.945.945,0,0,1-1-1v-2a2.946,2.946,0,0,1,3-3h4a2.946,2.946,0,0,1,3,3v2A.945.945,0,0,1,18,7.5Z" transform="translate(-1)"/>
    <path id="Path_4380" data-name="Path 4380" d="M14.5,23a.945.945,0,0,1-1-1V16a1,1,0,0,1,2,0v6A.945.945,0,0,1,14.5,23Zm4,0a.945.945,0,0,1-1-1V16a1,1,0,0,1,2,0v6A.945.945,0,0,1,18.5,23Z" transform="translate(-3.5 -4.5)"/>
  </g>
</svg>
