<svg xmlns="http://www.w3.org/2000/svg" width="40" height="40" viewBox="0 0 40 40">
  <g id="Download" transform="translate(0 0)">
    <g id="_Button_Style" data-name="🔶 Button Style" transform="translate(-0.086 0)">
      <g id="_Outline_Color" data-name="🎨 Outline Color" transform="translate(0.086)" fill="#fcfcfc" stroke="#0761a6" stroke-miterlimit="10" stroke-width="1">
        <rect width="40" height="40" rx="5" stroke="none"/>
        <rect x="0.5" y="0.5" width="39" height="39" rx="4.5" fill="none"/>
      </g>
    </g>
    <g id="Group_2644" data-name="Group 2644" transform="translate(0 -2)">
      <path id="Path_4413" data-name="Path 4413" d="M15.75,18H5.25A2.21,2.21,0,0,1,3,15.75v-3A.709.709,0,0,1,3.75,12a.709.709,0,0,1,.75.75v3a.709.709,0,0,0,.75.75h10.5a.709.709,0,0,0,.75-.75v-3a.75.75,0,0,1,1.5,0v3A2.21,2.21,0,0,1,15.75,18Z" transform="translate(10.001 12)" fill="#0761a6"/>
      <g id="Group_2643" data-name="Group 2643" transform="translate(16.004 14)">
        <path id="Path_4413-2" data-name="Path 4413" d="M14.25,3a.681.681,0,0,0-.525.225L10.5,6.45,7.275,3.225a.742.742,0,1,0-1.05,1.05l3.75,3.75a.725.725,0,0,0,1.05,0l3.75-3.75a.725.725,0,0,0,0-1.05A.681.681,0,0,0,14.25,3Z" transform="translate(-6.008 3.75)" fill="#0761a6"/>
        <path id="Path_4414" data-name="Path 4414" d="M.751,0A.709.709,0,0,0,0,.751v9a.75.75,0,1,0,1.5,0v-9A.709.709,0,0,0,.751,0Z" transform="translate(5.247 10.501) rotate(180)" fill="#0761a6"/>
      </g>
    </g>
  </g>
</svg>
